<svg width="42" height="40" viewBox="0 0 42 40" fill="none" xmlns="http://www.w3.org/2000/svg">
<path d="M40.7754 33.851C40.5437 33.851 40.2459 33.9172 40.0804 34.0165L34.6525 30.9054V15.8132C34.6525 15.8132 34.6856 15.5484 34.6525 15.3829C34.6194 15.2836 34.5532 15.2506 34.5532 15.2506L21.844 7.70445V2.80611C22.1749 2.57443 22.4397 2.14417 22.4397 1.68081C22.4397 0.952678 21.8109 0.356934 21.0827 0.356934C20.3546 0.356934 19.792 0.952678 19.792 1.68081C19.792 2.17726 19.8913 2.60752 20.5201 2.8392V7.70445L7.74468 15.1844C7.5792 15.2836 7.47991 15.3498 7.38061 15.5153C7.31442 15.6477 7.34752 15.9787 7.34752 15.9787V30.8061L1.98582 34.0165C1.78723 33.9172 1.55556 33.851 1.32388 33.851C0.595745 33.851 0 34.4468 0 35.1418C0 35.8368 0.562648 36.4326 1.29078 36.4326C2.01891 36.4326 2.58156 35.8368 2.58156 35.1418L7.81087 31.9645L20.5532 39.4775C20.6856 39.5768 20.818 39.643 20.9835 39.643C21.0827 39.643 21.2151 39.6099 21.3144 39.5437L34.0567 32.0307L39.4184 35.1749C39.4184 35.903 40.0142 36.4657 40.7092 36.4657C41.4374 36.4657 42 35.8699 42 35.1749C42 34.4799 41.4704 33.851 40.7754 33.851ZM20.487 9.22691V22.38L9.33333 15.8132L20.487 9.22691ZM21.844 9.22691L32.9976 15.8132L21.844 22.3995V9.22691ZM21.844 37.8227V24.6832L32.9314 31.2364L21.844 37.8227ZM33.3286 30.1442L22.1418 23.5248L33.3286 16.9385V30.1442Z" fill="white"/>
</svg>
